<svg xmlns="http://www.w3.org/2000/svg" width="602" height="114" viewBox="0 195 602 114">
  <defs>
    <linearGradient id="luxera-gold" x1="0.5" x2="0.5" y2="1" gradientUnits="objectBoundingBox">
      <stop offset="0" stop-color="#A58559"/>
      <stop offset="1" stop-color="#A58559"/>
    </linearGradient>
  </defs>
  <g id="Group_10" data-name="Group 10" transform="translate(-197 -1352)">
    <g id="Group_9" data-name="Group 9">
      <path id="vector" d="M197.852,207.388c0,.208.888.873,1.973,1.478,4.438,2.472,6.669,5.523,13.083,17.9,3.3,6.37,7.5,14.4,9.332,17.85s7.675,14.729,12.988,25.07,10.316,20.056,11.119,21.588c1.671,3.192,2.469,3.693,7.166,4.5,2.881.494,4.694.443,12.834-.365,5.214-.517,9.587-1.048,9.719-1.18s-.647-1.168-1.731-2.3c-4.046-4.237-23.66-26.054-31.7-35.264-14.815-16.965-16.965-19.472-16.7-19.472.488,0,12.947,8.484,22.058,15.021,11.569,8.3,26.438,19.376,36.212,26.973,11.063,8.6,15.976,10.753,25.717,11.267,5.312.28,16.995-.622,16.995-1.312,0-.219-.808-.809-1.8-1.313a28.139,28.139,0,0,1-4.526-3.375c-4.74-4.268-52.273-47.545-65.361-59.509-18.117-16.56-17.508-16.1-22.958-17.258-2.3-.487-7.075-.656-18.753-.662-8.618,0-15.669.163-15.669.371m440.811,78.871c-50.911.818-162.787,5.125-202.88,7.81-52.452,3.513-101.023,7.939-149.955,13.665-38.569,4.514-48.937,5.754-66.389,7.939-22.324,2.8-22.052,2.754-22.052,3.357,0,.646,43.055.094,65.228-.836,41.313-1.733,89.74-4.6,121.4-7.191,3.192-.261,20.009-1.628,37.373-3.036s42.642-3.5,56.175-4.645c29.913-2.533,51.374-4.348,76.834-6.5,10.6-.895,25.116-2.138,32.266-2.763s26.37-2.187,42.712-3.47c43.306-3.4,47.745-3.788,48.515-4.23.632-.363-19.7-.416-39.23-.1M438.272,326.281c-1,.805-1.111,1.311-1.253,5.5-.147,4.312-.085,4.694.956,5.9.866,1.007,1.63,1.344,3.438,1.518,1.991.191,2.518.058,3.668-.932,1.2-1.033,1.363-1.5,1.53-4.458.372-6.585-.659-8.416-4.741-8.416a5.421,5.421,0,0,0-3.6.887m23.358.188c-.9.957-1.008,1.579-.994,5.687.015,4.789.289,5.63,2.16,6.626,2.36,1.257,6.3.115,7.131-2.066.587-1.544.563-6.467-.043-8.647-.6-2.144-1.536-2.675-4.741-2.675-2.016,0-2.7.209-3.513,1.074m23.63.149c-.823,1.046-.962,1.874-.962,5.715,0,3.871.13,4.632.941,5.5a5.67,5.67,0,0,0,7.763-.149c.907-1.044,1.045-1.722,1.045-5.145,0-4.1-.679-6.31-2.11-6.859a13.875,13.875,0,0,0-3.233-.288c-2.128,0-2.619.174-3.444,1.223m23.724-.149c-.9.957-1.009,1.588-1.009,5.762,0,4.664.007,4.693,1.429,5.889a5.38,5.38,0,0,0,6.78.086c1.187-1.02,1.312-1.437,1.468-4.879.3-6.5-.6-7.933-4.954-7.933-2.227,0-2.883.19-3.714,1.074m23.63.149c-.817,1.039-.962,1.876-.962,5.545,0,3.9.11,4.449,1.12,5.624.983,1.143,1.444,1.3,3.754,1.3s2.772-.16,3.754-1.3c1.014-1.179,1.12-1.72,1.12-5.708,0-4.059-.09-4.5-1.14-5.545-.955-.956-1.587-1.14-3.912-1.14-2.442,0-2.888.146-3.735,1.223m23.677,0c-.823,1.046-.962,1.874-.962,5.715,0,3.871.13,4.632.941,5.5,1.762,1.891,5.773,1.941,7.619.1.845-.844.956-1.528.956-5.859,0-4.592-.069-4.959-1.1-5.79-.8-.647-1.829-.888-3.8-.888-2.364,0-2.82.152-3.662,1.223m23.661-.207c-.825.884-.947,1.627-.947,5.752,0,5.463.517,6.546,3.341,7,2.166.347,3.855-.071,5.027-1.243.795-.795.917-1.557.917-5.711,0-4.41-.086-4.874-1.074-5.8-1.546-1.452-5.909-1.448-7.264.007m23.659-.088c-.814.814-.929,1.547-.929,5.963,0,5.895.4,6.567,4.078,6.921,1.919.185,2.439.039,3.719-1.037,1.487-1.252,1.488-1.253,1.488-5.791,0-3.889-.138-4.714-.962-5.762-.846-1.076-1.294-1.223-3.714-1.223-2.133,0-2.961.209-3.68.928m23.758.146c-.892.949-1.009,1.595-1.009,5.533,0,5.223.147,5.739,1.891,6.641,2.418,1.25,6.384.452,7.106-1.431a31.4,31.4,0,0,0,.288-5.275c0-4.129-.094-4.612-1.074-5.533-1.577-1.481-5.785-1.443-7.2.065M349.2,326.29l-5.8.309,4.257.094a319.5,319.5,0,0,1,41.472,4.091c13.855,2.546,20.693,6.45,25.648,14.644a30.949,30.949,0,0,1,3.207,22.615c-2.438,9.64-8.454,16.688-16.936,19.84l-2.866,1.065,3.292.024a31.742,31.742,0,0,0,12.758-3.01c5.085-2.577,10.055-8.529,12.125-14.519.931-2.695,1.072-4,1.066-9.838-.007-6.17-.116-7.042-1.307-10.446-5.037-14.385-16.411-21.625-37.915-24.134-7.378-.861-28.989-1.269-39-.736m-124.653.469c-1.787.181-2.775.365-2.195.41,27.926,2.17,58.405,7.953,78.8,14.951,24.181,8.3,39.065,16.618,60.585,33.863,10.643,8.529,15.789,11.2,24.232,12.557,3.69.6,6.52.473,4.784-.208A27.224,27.224,0,0,1,376.5,375.766c-2.334-4.517-2.819-6.571-3.124-13.22l-.266-5.792L368.93,354.3c-20.306-11.945-44.836-19.579-79.388-24.705-17.1-2.537-21.805-2.871-42.479-3.021-10.6-.077-20.729.008-22.516.189m169.221,13.935c-5.439,1.078-10.056,5.921-12.191,12.788a23.822,23.822,0,0,0-.993,8.124c.02,5.6,1.037,9.287,3.679,13.312,4.684,7.138,14.738,8.5,20.157,2.734,1.254-1.335,1.035-1.487-.808-.558a14.661,14.661,0,0,1-2.618.959l-1.364.328,1.993-2.162c4.768-5.172,6.721-13.791,4.887-21.57a19.552,19.552,0,0,0-5.006-9.177l-1.874-2.033,1.364.3c.751.166,1.939.482,2.641.7,1.8.565,1.586-.14-.464-1.55a12.438,12.438,0,0,0-9.4-2.2m59.95,72.017c-5.144,1.011-9.962,4.9-11.485,9.276-.78,2.242-.879,3.963-.879,15.294v12.767l1.375,2.717a15.64,15.64,0,0,0,8.074,7.365c2.6,1.053,2.788,1.061,28.272,1.195l25.65.135v-9.322l-4.991-.092c-2.745-.051-13.556-.1-24.025-.116-17.31-.021-19.171-.1-20.539-.846-2.222-1.214-3-2.742-3.263-6.389l-.232-3.235h50.264v-9.285H451.8V429.5c0-3.31,1.075-5.569,3.249-6.832,1.568-.911,2.463-.949,25.65-1.08l24.025-.136V412.21l-24.49.051c-13.469.028-25.4.23-26.517.449m92.987.119a25.383,25.383,0,0,0-.1,4.526l.136,3.907,25.534.232c23.442.213,25.659.3,27.063,1.067,4.384,2.394,4.531,9.452.255,12.255-1.182.774-3.222.855-27.065,1.07l-25.787.232v25.07l5.223.131,5.223.131v-16.28h24.265l5.378,4.526c2.957,2.489,7.221,6.145,9.475,8.124l4.1,3.6h14.55l-2.187-2.205c-1.2-1.213-5.2-4.817-8.887-8.008s-6.715-5.931-6.733-6.086a6.033,6.033,0,0,1,2.522-.547,15.887,15.887,0,0,0,12.389-8.6c.917-1.861,1.072-2.889,1.066-7.053-.006-4.08-.18-5.253-1.067-7.2a15.8,15.8,0,0,0-11.524-8.826c-4.514-.956-53.46-1.022-53.825-.072M118,430.881c0,10.98.191,18.917.477,19.944a15.73,15.73,0,0,0,5.667,7.656c4.164,2.783,5.919,2.94,32.843,2.94h24.182l-.132-4.759-.132-4.759L157,451.9c-21.911,0-24.034-.071-25.4-.818-2.674-1.456-2.663-1.381-2.916-20.535l-.232-17.642-5.223-.131L118,412.644l0,18.237m98.98.247c.131,17.841.169,18.526,1.148,20.622a17.806,17.806,0,0,0,6.384,7.123c3.968,2.325,6.28,2.533,28.173,2.541,11.413,0,21.339-.194,22.749-.453,4.009-.737,8.223-3.121,10.267-5.807,3.051-4.01,3.144-4.743,3.144-24.69V412.674H278.685l-.143,17.061c-.134,16.083-.2,17.152-1.071,18.641a7.723,7.723,0,0,1-2.644,2.47c-1.606.833-3,.9-21.82.974-19.35.08-20.164.049-21.681-.845a10.3,10.3,0,0,1-2.553-2.239c-.947-1.269-.981-1.853-1.11-18.686l-.132-17.376H216.847l.136,18.454M327.457,413.07c.177.453,5.693,4.925,19.769,16.029,5.426,4.28,9.865,7.839,9.865,7.909s-6.685,5.416-14.856,11.879-14.856,11.928-14.856,12.143,3.332.392,7.4.392h7.4l11.42-9.094c6.281-5,11.671-8.991,11.978-8.865s5.572,4.21,11.7,9.076l11.142,8.847,7.544.017c4.15.01,7.535-.139,7.523-.331s-3.511-3.1-7.776-6.468c-18.513-14.609-21.914-17.355-21.9-17.678a79.513,79.513,0,0,1,6.809-5.682c3.737-2.936,10.456-8.264,14.931-11.839l8.137-6.5-7.708-.127-7.708-.127-11.236,8.832c-6.18,4.857-11.437,8.832-11.683,8.832-.487,0-21.516-16.45-21.972-17.189-.347-.561-16.152-.618-15.932-.058m345.691,2.97c-2.539,4.083-16.281,25.334-23.73,36.7-2.979,4.545-5.416,8.363-5.416,8.484a64,64,0,0,0,7.494.093l7.495-.128,10.826-18.106c5.954-9.958,11.061-18.5,11.349-18.977.441-.734.616-.771,1.112-.232.656.712,12.69,20.1,19.058,30.7l4.113,6.848h7.4c6.429,0,7.36-.092,7.124-.706-.149-.389-7.307-11.357-15.906-24.373l-15.635-23.667H675.241l-2.094,3.366m-49.805,73.8a9.452,9.452,0,0,0-2.711,1.7,8.744,8.744,0,0,0,1.081,13.87c2.156,1.467,6.89,1.463,9.522-.01,4.294-2.4,5.343-9.573,1.942-13.283a9.786,9.786,0,0,0-9.834-2.281M181.6,498.058v8.4h1.161c1.109,0,1.161-.124,1.161-2.786v-2.786l3.366-.01c6.043-.018,8.694-2.167,8.1-6.569a5.611,5.611,0,0,0-1.462-3.125c-1.142-1.143-1.5-1.214-6.767-1.361l-5.562-.155v8.4m34-.077.127,8.241h1.161c1.11,0,1.167-.137,1.3-3.134l.137-3.134h2.051c1.973,0,2.154.124,4.738,3.239,2.121,2.557,2.955,3.241,3.963,3.25.7.006,1.277-.156,1.277-.36a18.007,18.007,0,0,0-2.429-3.1c-1.522-1.708-2.209-2.8-1.84-2.922a9.469,9.469,0,0,0,1.95-1.341,4.86,4.86,0,0,0,1.234-5.857c-1.069-2.558-2.637-3.124-8.65-3.124h-5.141l.127,8.241m35.642.116v8.357h2.321V489.741h-2.321V498.1m22.984-7.416c.164.517,1.775,4.288,3.579,8.381,3.11,7.053,3.345,7.434,4.492,7.3,1.078-.125,1.549-.9,4.316-7.1,4.435-9.945,4.312-9.517,2.749-9.517-1.22,0-1.443.357-3.993,6.383-1.486,3.511-2.836,6.54-3,6.73s-1.541-2.682-3.062-6.383c-2.635-6.415-2.825-6.729-4.072-6.73-1.1,0-1.261.147-1.01.939m39.723,1.961c-.727,1.6-2.39,5.169-3.7,7.941a56.273,56.273,0,0,0-2.373,5.455c0,.229.53.416,1.177.416.953,0,1.347-.4,2.072-2.089l.9-2.089h9.192l.8,2.089c.7,1.84.966,2.089,2.2,2.089.939,0,1.326-.192,1.169-.58-.129-.319-1.854-4.08-3.833-8.357-3.441-7.436-3.657-7.776-4.941-7.776-1.2,0-1.487.316-2.664,2.9m28.835-1.857c.131.925.454,1.06,2.806,1.183l2.657.139.128,7.057.128,7.057h2.321l.128-7.057.128-7.057,2.657-.139c2.352-.123,2.675-.259,2.806-1.183.148-1.044.143-1.045-6.88-1.045s-7.028,0-6.88,1.045m33.913,7.2.127,8.241,6.384.129,6.384.129v-2.347H384.51c-2.794,0-5.161-.156-5.26-.348a9.855,9.855,0,0,1,.02-2.553l.2-2.205h4.6c4.592,0,4.6,0,4.6-1.161V496.7h-9.285v-4.563l3.387-.318a32.258,32.258,0,0,1,4.759-.156c1.129.133,1.4-.024,1.52-.883.147-1.039.117-1.045-6.163-1.045h-6.31l.127,8.241m57.993-.232c-2.09,4.4-3.8,8.165-3.791,8.357s.535.348,1.176.348c.923,0,1.379-.436,2.182-2.089l1.015-2.089H444.4l.9,2.089c.775,1.808,1.082,2.089,2.278,2.089h1.382L446.379,501c-1.419-3-3.174-6.76-3.9-8.357-1.174-2.581-1.467-2.9-2.655-2.9-1.273,0-1.514.376-5.136,8.008m33.646-1.189c1.667,3.781,3.325,7.569,3.683,8.417.534,1.262.87,1.514,1.86,1.393,1.083-.133,1.586-.992,4.842-8.273l3.633-8.124-1.174-.152a2.126,2.126,0,0,0-1.508.232c-.183.211-1.562,3.246-3.064,6.742s-2.769,6.317-2.817,6.267-1.341-3.015-2.874-6.59c-2.652-6.183-2.857-6.507-4.2-6.643l-1.414-.144,3.032,6.876m34.532,1.537v8.357h2.321V489.741h-2.321V498.1m28.383-4.555c-1,2.123-2.673,5.691-3.723,7.93A36.48,36.48,0,0,0,525.616,506c0,.251.48.456,1.068.456.807,0,1.318-.514,2.091-2.106l1.023-2.106,4.525.133,4.524.133.892,1.973c.744,1.646,1.11,1.973,2.205,1.973a2.885,2.885,0,0,0,1.313-.158c0-.087-1.655-3.8-3.677-8.241-3.517-7.733-3.738-8.089-5.1-8.228s-1.5.013-3.234,3.714m29.185-2.933c0,.717.486.923,2.786,1.183l2.786.315v14.346h2.3l.128-7.312.128-7.312h2.786c2.535,0,2.8-.094,2.934-1.045.148-1.044.142-1.045-6.848-1.045-6.526,0-7,.058-7,.869m34.46,7.372.127,8.241h2.321l.127-8.241.127-8.241h-2.828l.127,8.241m60.712.116v8.357h2.3l.129-6.373.129-6.374,3.9,5.1c4.91,6.421,6.051,7.65,7.1,7.65.781,0,.842-.6.842-8.357v-8.357h-2.294l-.13,6.024-.13,6.024-4.8-6.024c-3.773-4.74-5.036-6.024-5.919-6.024h-1.123V498.1M192.358,492.97a3.142,3.142,0,0,1-.371,4.63c-.986.776-1.886.962-4.643.962h-3.419v-7.083l3.791.22c3.229.187,3.916.375,4.643,1.272m32.165-.908a2.894,2.894,0,0,1,2.829,2.414c.234.972.036,1.519-.882,2.437-1.06,1.06-1.551,1.184-4.687,1.184h-3.5v-2.979c0-3.384.209-3.6,3.2-3.276,1.121.121,2.491.22,3.045.22m405.131.255c4.248,2.2,4.2,9.276-.083,11.467a6.262,6.262,0,0,1-5.768.145c-3.487-1.457-4.737-7.048-2.239-10.018a7.717,7.717,0,0,1,2.205-1.863,8.477,8.477,0,0,1,5.885.269m-311.6,3.211c2.358,5.2,2.438,4.89-1.243,4.89a13.4,13.4,0,0,1-3.466-.262c-.24-.24,2.858-7.63,3.2-7.63a21.8,21.8,0,0,1,1.51,3m218.021.538a31.77,31.77,0,0,1,1.613,3.946c0,.223-1.585.406-3.521.406s-3.451-.171-3.366-.381c.642-1.582,3.43-7.51,3.532-7.511a34.378,34.378,0,0,1,1.741,3.54m-94.556.1a22.018,22.018,0,0,1,1.461,3.714c0,.363-1.078.543-3.25.543-1.787,0-3.25-.182-3.25-.4,0-.725,2.915-7.024,3.25-7.024a12.188,12.188,0,0,1,1.788,3.171" transform="translate(79 1144.983)" fill="url(#luxera-gold)" fill-rule="evenodd"/>
    </g>
  </g>
</svg>
