<svg xmlns="http://www.w3.org/2000/svg" width="468" height="230" viewBox="0 0 468 230">
  <g id="Group_8" data-name="Group 8" transform="translate(-1005 -1413)">
    <rect id="Rectangle_21" data-name="Rectangle 21" width="468" height="230" transform="translate(1005 1413)"/>
    <path id="vector" d="M164.063,207.231c0,.12.512.5,1.138.852,2.56,1.426,3.847,3.186,7.547,10.325,1.9,3.675,4.327,8.308,5.383,10.3s4.427,8.5,7.492,14.462,5.951,11.569,6.414,12.453c.964,1.841,1.424,2.13,4.134,2.594,1.662.285,2.708.255,7.4-.21,3.007-.3,5.53-.6,5.606-.681s-.373-.674-1-1.328c-2.334-2.444-13.648-15.029-18.289-20.342-8.546-9.786-9.786-11.232-9.632-11.232.282,0,7.469,4.894,12.724,8.665,6.673,4.788,15.251,11.177,20.889,15.559,6.382,4.961,9.216,6.2,14.835,6.5,3.065.162,9.8-.359,9.8-.757,0-.126-.466-.467-1.036-.758a16.234,16.234,0,0,1-2.611-1.947c-2.734-2.462-30.154-27.427-37.7-34.328-10.451-9.553-10.1-9.289-13.243-9.955-1.326-.281-4.081-.378-10.818-.382-4.971,0-9.038.094-9.038.214m254.282,45.5c-29.368.472-93.9,2.956-117.032,4.505-30.257,2.026-58.275,4.58-86.5,7.883-22.249,2.6-28.23,3.319-38.3,4.579-12.878,1.613-12.721,1.589-12.721,1.936,0,.373,24.836.054,37.627-.482,23.831-1,51.767-2.654,70.031-4.148,1.841-.151,11.542-.939,21.558-1.751s24.6-2.018,32.4-2.68c17.255-1.461,29.635-2.508,44.322-3.748,6.113-.516,14.488-1.233,18.613-1.594s15.211-1.261,24.638-2c24.981-1.962,27.542-2.185,27.986-2.44.365-.209-11.362-.24-22.63-.059m-115.6,23.087c-.574.465-.641.756-.723,3.171-.085,2.488-.049,2.708.551,3.406a2.477,2.477,0,0,0,1.983.875c1.149.11,1.452.033,2.116-.538.693-.6.786-.868.883-2.572.215-3.8-.38-4.855-2.735-4.855a3.127,3.127,0,0,0-2.076.512m13.474.108c-.518.552-.581.911-.574,3.281.009,2.763.167,3.248,1.246,3.822,1.361.725,3.635.066,4.113-1.192a12.183,12.183,0,0,0-.025-4.988c-.344-1.237-.886-1.543-2.735-1.543-1.163,0-1.557.121-2.026.62m13.631.086c-.475.6-.555,1.081-.555,3.3,0,2.233.075,2.672.543,3.174a3.271,3.271,0,0,0,4.478-.086c.523-.6.6-.993.6-2.968,0-2.367-.392-3.64-1.217-3.957a8,8,0,0,0-1.865-.166c-1.228,0-1.511.1-1.987.706m13.685-.086c-.518.552-.582.916-.582,3.324,0,2.69,0,2.707.824,3.4a3.1,3.1,0,0,0,3.911.05c.685-.589.757-.829.847-2.814.17-3.747-.348-4.576-2.858-4.576-1.284,0-1.663.11-2.142.62m13.631.086c-.471.6-.555,1.082-.555,3.2,0,2.249.063,2.567.646,3.244.567.659.833.751,2.166.751s1.6-.092,2.166-.751c.585-.68.646-.992.646-3.293,0-2.341-.052-2.593-.657-3.2-.551-.551-.916-.657-2.257-.657-1.409,0-1.666.084-2.155.706m13.658,0c-.475.6-.555,1.081-.555,3.3,0,2.233.075,2.672.543,3.174a3.391,3.391,0,0,0,4.4.055c.487-.487.552-.881.552-3.38,0-2.649-.04-2.861-.632-3.34a3.248,3.248,0,0,0-2.19-.512c-1.364,0-1.627.088-2.113.706m13.649-.119c-.476.51-.546.939-.546,3.318,0,3.152.3,3.776,1.927,4.037a3.175,3.175,0,0,0,2.9-.717c.459-.458.529-.9.529-3.294,0-2.544-.05-2.812-.62-3.348-.892-.837-3.409-.835-4.19,0m13.648-.051c-.47.47-.536.893-.536,3.44,0,3.4.229,3.788,2.353,3.992a2.211,2.211,0,0,0,2.145-.6c.858-.722.858-.723.858-3.34,0-2.243-.08-2.719-.555-3.324-.488-.621-.746-.706-2.142-.706-1.23,0-1.708.121-2.123.536m13.7.084c-.514.548-.582.92-.582,3.192,0,3.013.085,3.311,1.091,3.831,1.395.721,3.683.261,4.1-.825a18.119,18.119,0,0,0,.166-3.043c0-2.382-.054-2.66-.62-3.192a3.658,3.658,0,0,0-4.154.037m-160.463-.1L248.02,276l2.456.054a184.309,184.309,0,0,1,23.923,2.36c7.992,1.469,11.937,3.721,14.795,8.448a17.853,17.853,0,0,1,1.85,13.046c-1.406,5.561-4.876,9.626-9.77,11.445l-1.653.614,1.9.014a18.311,18.311,0,0,0,7.36-1.736,15.758,15.758,0,0,0,6.994-8.375c.537-1.554.619-2.306.615-5.675,0-3.559-.067-4.062-.754-6.026-2.905-8.3-9.466-12.475-21.871-13.922a202.416,202.416,0,0,0-22.5-.425m-71.906.271c-1.031.1-1.6.211-1.266.237,16.109,1.252,33.691,4.588,45.454,8.624,13.949,4.787,22.535,9.586,34.949,19.534,6.139,4.92,9.108,6.458,13.978,7.244,2.129.344,3.761.273,2.76-.12a15.7,15.7,0,0,1-8.221-7.249c-1.346-2.606-1.626-3.79-1.8-7.626l-.153-3.341-2.41-1.418c-11.713-6.891-25.864-11.294-45.795-14.251-9.864-1.463-12.578-1.656-24.5-1.743-6.113-.044-11.958,0-12.989.109m97.616,8.038c-3.138.622-5.8,3.416-7.033,7.377a13.741,13.741,0,0,0-.573,4.687,12.737,12.737,0,0,0,2.122,7.679c2.7,4.118,8.5,4.9,11.627,1.577.724-.77.6-.858-.466-.322a8.459,8.459,0,0,1-1.51.553l-.787.189,1.149-1.247c2.75-2.984,3.877-7.955,2.819-12.443a11.279,11.279,0,0,0-2.887-5.294l-1.081-1.173.787.174c.433.1,1.118.278,1.524.406,1.037.326.915-.081-.268-.894a7.175,7.175,0,0,0-5.423-1.269m34.582,41.543a9.085,9.085,0,0,0-6.625,5.351c-.45,1.294-.507,2.286-.507,8.822v7.365l.793,1.567a9.022,9.022,0,0,0,4.657,4.249c1.5.607,1.608.612,16.309.689l14.8.078v-5.378l-2.879-.053c-1.584-.029-7.82-.059-13.859-.067-9.985-.012-11.059-.056-11.848-.488-1.282-.7-1.732-1.582-1.882-3.685l-.134-1.866h29V336.9H310.553v-1.54c0-1.909.62-3.212,1.874-3.941.9-.526,1.421-.547,14.8-.623l13.859-.078v-5.334l-14.127.029c-7.77.016-14.653.133-15.3.259m53.64.069a14.643,14.643,0,0,0-.058,2.611l.078,2.254,14.729.134c13.522.123,14.8.173,15.611.616,2.529,1.381,2.614,5.452.147,7.069-.682.447-1.859.493-15.613.617l-14.875.134v14.462l3.013.076,3.013.076V344.4h14l3.1,2.611c1.706,1.436,4.165,3.545,5.466,4.687l2.364,2.076h8.393l-1.261-1.272c-.694-.7-3-2.778-5.126-4.62s-3.874-3.421-3.884-3.511a3.48,3.48,0,0,1,1.455-.315A9.164,9.164,0,0,0,403,339.093c.529-1.074.619-1.667.615-4.069,0-2.354-.1-3.03-.616-4.151a9.113,9.113,0,0,0-6.647-5.091c-2.6-.552-30.839-.589-31.049-.042M118,336.153c0,6.334.11,10.912.275,11.5a9.074,9.074,0,0,0,3.269,4.416c2.4,1.606,3.415,1.7,18.945,1.7H154.44l-.076-2.745-.076-2.745-13.792,0c-12.639,0-13.864-.041-14.654-.472-1.543-.84-1.536-.8-1.682-11.846l-.134-10.177-3.013-.076L118,325.633l0,10.52m57.1.143c.076,10.292.1,10.687.662,11.9a10.271,10.271,0,0,0,3.682,4.109c2.289,1.341,3.623,1.461,16.252,1.466,6.583,0,12.309-.112,13.123-.261a10.308,10.308,0,0,0,5.922-3.35c1.76-2.313,1.814-2.736,1.814-14.243V325.651h-5.861l-.082,9.842c-.077,9.278-.113,9.894-.618,10.753a4.455,4.455,0,0,1-1.525,1.425c-.926.481-1.733.517-12.587.562-11.162.046-11.631.028-12.507-.487a5.945,5.945,0,0,1-1.473-1.291c-.546-.732-.566-1.069-.64-10.779l-.076-10.023H175.02L175.1,336.3m63.727-10.417c.1.261,3.284,2.841,11.4,9.246,3.13,2.469,5.691,4.522,5.691,4.562s-3.856,3.124-8.57,6.852-8.57,6.881-8.57,7a20.5,20.5,0,0,0,4.271.226h4.271l6.588-5.246a63.5,63.5,0,0,1,6.91-5.113c.177.073,3.214,2.429,6.749,5.236l6.427,5.1,4.352.01a23.612,23.612,0,0,0,4.34-.191c-.006-.111-2.025-1.789-4.486-3.731-10.679-8.427-12.641-10.011-12.634-10.2a45.87,45.87,0,0,1,3.928-3.278c2.156-1.694,6.032-4.767,8.613-6.829l4.694-3.749-4.446-.073-4.446-.073-6.481,5.095c-3.565,2.8-6.6,5.095-6.739,5.095-.281,0-12.412-9.489-12.675-9.915-.2-.323-9.317-.356-9.191-.033m199.412,1.713c-1.465,2.355-9.391,14.614-13.689,21.17-1.718,2.622-3.124,4.824-3.124,4.894a36.923,36.923,0,0,0,4.323.054l4.323-.074,6.245-10.444c3.435-5.744,6.38-10.671,6.547-10.947.254-.423.355-.445.642-.134.379.411,7.32,11.593,10.994,17.709l2.373,3.95h4.266c3.709,0,4.246-.053,4.11-.407-.086-.224-4.215-6.551-9.175-14.06l-9.019-13.653h-7.606l-1.208,1.942m-28.73,42.569a5.453,5.453,0,0,0-1.564.983,5.044,5.044,0,0,0,.624,8,6.241,6.241,0,0,0,5.493-.006c2.477-1.386,3.082-5.522,1.12-7.662a5.645,5.645,0,0,0-5.673-1.316M154.69,374.9v4.843h.67c.64,0,.67-.072.67-1.607v-1.607l1.942-.006c3.486-.01,5.015-1.25,4.674-3.789a3.237,3.237,0,0,0-.843-1.8c-.659-.659-.863-.7-3.9-.785l-3.208-.089V374.9m19.611-.044.073,4.754h.67c.64,0,.673-.079.749-1.808l.079-1.808h1.183c1.138,0,1.243.072,2.733,1.868,1.223,1.475,1.7,1.87,2.286,1.875.4,0,.736-.09.736-.208a10.387,10.387,0,0,0-1.4-1.787c-.878-.985-1.274-1.615-1.062-1.686a5.463,5.463,0,0,0,1.125-.773,2.8,2.8,0,0,0,.712-3.379c-.616-1.475-1.521-1.8-4.99-1.8h-2.965l.073,4.754m20.56.067v4.821H196.2v-9.641h-1.339v4.82m13.259-4.278c.095.3,1.024,2.474,2.065,4.834,1.794,4.069,1.929,4.288,2.591,4.212.622-.072.893-.519,2.49-4.1,2.558-5.737,2.487-5.49,1.586-5.49-.7,0-.833.206-2.3,3.682-.857,2.025-1.636,3.772-1.73,3.882a17.078,17.078,0,0,1-1.766-3.682c-1.52-3.7-1.63-3.882-2.349-3.882-.636,0-.728.085-.582.542m22.914,1.132c-.419.921-1.378,2.982-2.131,4.581a32.463,32.463,0,0,0-1.369,3.147c0,.132.306.24.679.24.55,0,.777-.23,1.2-1.205l.517-1.205h5.3l.46,1.205c.405,1.061.557,1.205,1.27,1.205.542,0,.765-.111.674-.335-.074-.184-1.07-2.354-2.211-4.821-1.985-4.289-2.11-4.486-2.85-4.486-.69,0-.858.182-1.537,1.674m16.633-1.071c.076.533.262.612,1.619.683l1.533.08.074,4.071.074,4.071h1.339l.074-4.071.074-4.071,1.533-.08c1.357-.071,1.543-.149,1.619-.683.085-.6.082-.6-3.969-.6s-4.054,0-3.969.6m19.562,4.151.073,4.754,3.682.074,3.682.074v-1.354h-2.93a12.428,12.428,0,0,1-3.035-.2,5.682,5.682,0,0,1,.011-1.473l.115-1.272h2.651c2.649,0,2.651,0,2.651-.67v-.67h-5.356v-2.632l1.954-.183a18.609,18.609,0,0,1,2.745-.09c.651.077.806-.014.877-.509.085-.6.067-.6-3.555-.6h-3.64l.073,4.754m33.454-.134c-1.206,2.541-2.19,4.71-2.187,4.82s.309.2.679.2c.532,0,.8-.252,1.258-1.205l.586-1.205h5.268l.517,1.205c.447,1.043.624,1.205,1.314,1.205h.8l-1.489-3.147c-.819-1.731-1.831-3.9-2.249-4.82-.677-1.489-.846-1.674-1.531-1.674-.734,0-.874.217-2.963,4.62m19.409-.686c.962,2.181,1.918,4.366,2.125,4.855.308.728.5.873,1.073.8.625-.077.915-.572,2.793-4.772l2.1-4.687-.677-.088a1.227,1.227,0,0,0-.87.134c-.105.122-.9,1.872-1.768,3.889s-1.6,3.644-1.625,3.615-.773-1.739-1.658-3.8c-1.53-3.567-1.648-3.753-2.423-3.832l-.815-.083,1.749,3.966m19.92.886v4.821h1.339v-9.641h-1.339v4.82m16.373-2.628-2.148,4.574a21.05,21.05,0,0,0-1.1,2.611c0,.145.277.263.616.263.466,0,.76-.3,1.206-1.215l.59-1.215,2.61.077,2.61.077.514,1.138c.429.95.64,1.138,1.272,1.138a1.664,1.664,0,0,0,.758-.091c0-.05-.954-2.189-2.121-4.754-2.029-4.461-2.156-4.666-2.94-4.746s-.863.008-1.865,2.143m16.835-1.692c0,.413.28.533,1.607.683l1.607.182v8.276h1.325l.074-4.218.074-4.218h1.607c1.463,0,1.615-.054,1.693-.6.085-.6.082-.6-3.95-.6-3.765,0-4.036.034-4.036.5M393.1,374.86l.073,4.754h1.339l.073-4.754.073-4.754h-1.632l.073,4.754m35.022.067v4.821h1.324l.074-3.676.074-3.677,2.248,2.94c2.833,3.7,3.491,4.413,4.1,4.413.451,0,.486-.344.486-4.821v-4.82H435.1l-.075,3.475-.075,3.475-2.767-3.475c-2.177-2.734-2.9-3.475-3.415-3.475h-.648v4.82m-267.227-2.958a1.812,1.812,0,0,1-.214,2.671c-.569.448-1.088.555-2.678.555h-1.972v-4.086l2.187.127c1.863.108,2.259.216,2.678.734m18.554-.524a1.669,1.669,0,0,1,1.632,1.393c.135.561.021.876-.509,1.406-.611.611-.895.683-2.7.683h-2.021v-1.719c0-1.952.121-2.076,1.845-1.89.646.07,1.437.127,1.756.127m233.7.147c2.45,1.267,2.421,5.351-.048,6.615a3.612,3.612,0,0,1-3.328.084c-2.012-.84-2.732-4.066-1.291-5.779a4.452,4.452,0,0,1,1.272-1.075,4.89,4.89,0,0,1,3.395.155M233.4,373.445c1.36,3,1.406,2.821-.717,2.821a7.729,7.729,0,0,1-2-.151,20.98,20.98,0,0,1,1.846-4.4,12.576,12.576,0,0,1,.871,1.732m125.765.31a18.328,18.328,0,0,1,.931,2.276,4.63,4.63,0,0,1-2.031.234c-1.117,0-1.991-.1-1.942-.22.37-.913,1.979-4.332,2.038-4.333a19.839,19.839,0,0,1,1,2.042m-54.545.055a12.7,12.7,0,0,1,.843,2.142c0,.209-.622.313-1.875.313a3.991,3.991,0,0,1-1.875-.233,18.931,18.931,0,0,1,1.875-4.052,7.032,7.032,0,0,1,1.031,1.829" transform="translate(947 1234.983)" fill="#fff" fill-rule="evenodd"/>
  </g>
</svg>
