<svg xmlns="http://www.w3.org/2000/svg" xmlns:xlink="http://www.w3.org/1999/xlink" width="353" height="353" viewBox="0 0 353 353">
  <defs>
    <linearGradient id="linear-gradient" x1="0.5" x2="0.5" y2="1" gradientUnits="objectBoundingBox">
      <stop offset="0" stop-color="#f4e293"/>
      <stop offset="1" stop-color="#c7ab2e"/>
    </linearGradient>
    <filter id="vector" x="28" y="101" width="297.097" height="156.849" filterUnits="userSpaceOnUse">
      <feOffset dy="3" input="SourceAlpha"/>
      <feGaussianBlur stdDeviation="3" result="blur"/>
      <feFlood flood-opacity="0.161"/>
      <feComposite operator="in" in2="blur"/>
      <feComposite in="SourceGraphic"/>
    </filter>
    <filter id="vector-2" x="28" y="101" width="297.097" height="156.849" filterUnits="userSpaceOnUse">
      <feOffset dy="3" input="SourceAlpha"/>
      <feGaussianBlur stdDeviation="3" result="blur-2"/>
      <feFlood flood-opacity="0.161" result="color"/>
      <feComposite operator="out" in="SourceGraphic" in2="blur-2"/>
      <feComposite operator="in" in="color"/>
      <feComposite operator="in" in2="SourceGraphic"/>
    </filter>
  </defs>
  <g id="Group_6" data-name="Group 6" transform="translate(-1184 -1782)">
    <circle id="Ellipse_2" data-name="Ellipse 2" cx="176.5" cy="176.5" r="176.5" transform="translate(1184 1782)"/>
    <g data-type="innerShadowGroup">
      <g transform="matrix(1, 0, 0, 1, 1184, 1782)" filter="url(#vector)">
        <path id="vector-3" data-name="vector" d="M155.021,207.19c0,.1.411.4.915.685,2.057,1.146,3.092,2.561,6.066,8.3,1.527,2.954,3.478,6.677,4.326,8.278s3.558,6.831,6.021,11.623,4.783,9.3,5.155,10.009c.775,1.48,1.144,1.712,3.323,2.085,1.336.229,2.176.2,5.947-.169,2.417-.241,4.444-.482,4.506-.547s-.3-.542-.8-1.067c-1.876-1.964-10.969-12.079-14.7-16.349-6.868-7.865-7.865-9.027-7.741-9.027.227,0,6,3.933,10.226,6.964,5.363,3.848,12.257,8.983,16.789,12.5,5.129,3.987,7.407,4.983,11.923,5.224,2.463.13,7.876-.289,7.876-.608,0-.1-.375-.375-.833-.609a13.047,13.047,0,0,1-2.1-1.565c-2.2-1.979-24.235-22.043-30.3-27.59-8.4-7.678-8.117-7.466-10.643-8-1.066-.226-3.28-.3-8.694-.307-4,0-7.264.076-7.264.172m204.367,36.569c-23.6.379-75.468,2.376-94.059,3.621-24.318,1.628-46.836,3.681-69.52,6.336-17.882,2.09-22.689,2.667-30.782,3.68-10.35,1.3-10.224,1.277-10.224,1.556,0,.3,19.961.043,30.241-.387,19.153-.8,41.605-2.133,56.284-3.334,1.48-.121,9.276-.755,17.326-1.407s19.771-1.622,26.04-2.154c13.868-1.174,23.818-2.016,35.622-3.012,4.913-.415,11.644-.991,14.959-1.281s12.225-1.013,19.8-1.607c20.077-1.577,22.136-1.756,22.492-1.961.293-.168-9.132-.193-18.188-.047M266.47,262.317c-.461.374-.515.608-.581,2.549-.068,2-.039,2.176.443,2.737a1.991,1.991,0,0,0,1.594.7c.923.088,1.167.027,1.7-.432.557-.482.632-.7.71-2.067.173-3.054-.305-3.9-2.2-3.9a2.513,2.513,0,0,0-1.668.411m10.829.087c-.416.444-.467.732-.461,2.637.007,2.221.134,2.61,1,3.072,1.094.583,2.921.053,3.306-.958a9.791,9.791,0,0,0-.02-4.009c-.276-.994-.712-1.24-2.2-1.24-.935,0-1.251.1-1.628.5m10.955.069c-.382.482-.446.869-.446,2.652s.06,2.147.436,2.551a2.629,2.629,0,0,0,3.6-.069c.42-.482.482-.8.482-2.385,0-1.9-.315-2.926-.978-3.18a6.43,6.43,0,0,0-1.5-.133c-.987,0-1.214.08-1.6.567m11-.069c-.416.444-.468.736-.468,2.672,0,2.162,0,2.176.662,2.733a2.492,2.492,0,0,0,3.143.04c.551-.473.608-.666.681-2.262.137-3.012-.28-3.678-2.3-3.678-1.032,0-1.337.088-1.722.5m10.955.069c-.379.482-.446.87-.446,2.572,0,1.808.051,2.063.519,2.607s.669.6,1.741.6,1.286-.074,1.741-.6c.47-.547.519-.8.519-2.647,0-1.881-.042-2.084-.528-2.572-.443-.443-.736-.528-1.814-.528-1.132,0-1.339.068-1.732.567m10.977,0c-.382.482-.446.869-.446,2.652s.06,2.147.436,2.551a2.725,2.725,0,0,0,3.536.044c.391-.391.444-.708.444-2.717,0-2.129-.032-2.3-.508-2.684a2.611,2.611,0,0,0-1.76-.411c-1.1,0-1.308.071-1.7.567m10.97-.1c-.383.41-.439.755-.439,2.667,0,2.533.241,3.035,1.549,3.245a2.552,2.552,0,0,0,2.331-.576c.369-.368.425-.723.425-2.647,0-2.045-.04-2.26-.5-2.691a3.064,3.064,0,0,0-3.367,0m10.969-.041c-.378.378-.431.718-.431,2.765,0,2.733.184,3.044,1.891,3.208a1.777,1.777,0,0,0,1.724-.482c.69-.58.69-.581.69-2.684,0-1.8-.064-2.185-.446-2.672s-.6-.567-1.722-.567c-.989,0-1.373.1-1.706.431m11.011.068c-.413.44-.468.739-.468,2.565,0,2.422.068,2.661.877,3.079,1.121.579,2.96.21,3.3-.663a14.566,14.566,0,0,0,.133-2.446c0-1.914-.043-2.138-.5-2.565a2.94,2.94,0,0,0-3.339.03m-128.965-.08-2.673.133,1.974.043a148.132,148.132,0,0,1,19.227,1.9c6.423,1.181,9.594,2.991,11.895,6.79a14.348,14.348,0,0,1,1.487,10.485,12.693,12.693,0,0,1-7.852,9.2l-1.329.493,1.527.011a14.717,14.717,0,0,0,5.915-1.4,12.665,12.665,0,0,0,5.621-6.731c.432-1.249.5-1.853.494-4.561,0-2.86-.054-3.265-.606-4.843-2.331-6.671-7.608-10.026-17.578-11.189a162.686,162.686,0,0,0-18.083-.342m-57.791.218c-.829.08-1.286.17-1.018.19,12.947,1.006,27.078,3.687,36.532,6.931,11.211,3.847,18.111,7.7,28.089,15.7,4.934,3.954,7.32,5.19,11.234,5.822,1.711.276,3.023.219,2.218-.1a12.618,12.618,0,0,1-6.607-5.826c-1.082-2.094-1.307-3.046-1.447-6.129l-.123-2.685-1.937-1.14c-9.414-5.538-20.787-9.077-36.806-11.454-7.928-1.176-10.109-1.331-19.691-1.4-4.913-.035-9.611,0-10.439.088m78.454,6.46c-2.522.5-4.661,2.745-5.652,5.929a11.044,11.044,0,0,0-.461,3.767,10.237,10.237,0,0,0,1.705,6.172c2.17,3.31,6.831,3.938,9.345,1.267.582-.619.482-.69-.375-.259a6.806,6.806,0,0,1-1.214.444l-.633.152.923-1a11.374,11.374,0,0,0,2.266-10,9.065,9.065,0,0,0-2.32-4.255l-.869-.943.633.14c.348.08.9.223,1.225.326.833.262.735-.065-.215-.719a5.767,5.767,0,0,0-4.358-1.02m27.794,33.388a7.3,7.3,0,0,0-5.325,4.3c-.362,1.04-.407,1.837-.407,7.09v5.919l.637,1.259a7.251,7.251,0,0,0,3.743,3.415c1.206.488,1.292.492,13.108.554l11.895.063v-4.322l-2.314-.043c-1.273-.023-6.285-.047-11.139-.054-8.025-.01-8.888-.045-9.522-.392-1.03-.563-1.392-1.271-1.513-2.962l-.108-1.5h23.307v-4.306h-23.26v-1.238A3.338,3.338,0,0,1,274.262,307c.723-.423,1.142-.44,11.895-.5l11.139-.063V302.15l-11.354.023c-6.245.013-11.777.107-12.3.208m43.111.055a11.769,11.769,0,0,0-.047,2.1l.063,1.812,11.838.108c10.868.1,11.895.139,12.547.5a3.432,3.432,0,0,1,.118,5.681c-.548.359-1.494.4-12.548.5l-11.955.108v11.623l2.422.061,2.422.061v-7.547h11.252l2.491,2.1c1.371,1.154,3.347,2.849,4.393,3.767l1.9,1.668H348.4l-1.013-1.022c-.558-.563-2.411-2.233-4.12-3.713s-3.114-2.749-3.122-2.822a2.8,2.8,0,0,1,1.169-.253,7.365,7.365,0,0,0,5.746-3.989c.425-.863.5-1.34.494-3.27a6.652,6.652,0,0,0-.5-3.336,7.324,7.324,0,0,0-5.342-4.092c-2.09-.444-24.785-.473-24.954-.034M118,310.8c0,5.091.088,8.77.221,9.243a7.293,7.293,0,0,0,2.627,3.549c1.929,1.291,2.745,1.366,15.226,1.366h11.212l-.061-2.206-.061-2.206H136.083c-10.158,0-11.143-.033-11.777-.379-1.24-.675-1.234-.643-1.352-9.521l-.108-8.179-2.422-.061L118,302.35V310.8m45.891.115c.061,8.272.08,8.589.532,9.564a8.255,8.255,0,0,0,2.959,3.3c1.84,1.078,2.912,1.174,13.062,1.178,5.291,0,9.893-.09,10.547-.21a8.284,8.284,0,0,0,4.76-2.692c1.415-1.859,1.458-2.2,1.458-11.447v-8.251H192.5l-.066,7.91c-.062,7.457-.091,7.952-.5,8.642a3.581,3.581,0,0,1-1.226,1.145c-.744.387-1.393.415-10.116.452-8.971.037-9.348.022-10.052-.391a4.778,4.778,0,0,1-1.184-1.038c-.439-.588-.455-.859-.514-8.663l-.061-8.056h-4.956l.064,8.557m51.218-8.372c.08.21,2.639,2.283,9.162,7.431,2.516,1.984,4.574,3.634,4.574,3.667s-3.1,2.511-6.888,5.507-6.888,5.53-6.888,5.626a16.482,16.482,0,0,0,3.433.182h3.433l5.295-4.216a51.031,51.031,0,0,1,5.554-4.109c.142.059,2.583,1.952,5.424,4.208l5.165,4.1,3.5.008a18.981,18.981,0,0,0,3.488-.154c0-.089-1.627-1.438-3.605-3-8.583-6.773-10.16-8.046-10.154-8.2a36.867,36.867,0,0,1,3.157-2.635c1.733-1.361,4.848-3.831,6.922-5.488l3.773-3.013-3.573-.059-3.573-.059-5.209,4.1c-2.865,2.25-5.3,4.1-5.416,4.1-.226,0-9.976-7.626-10.187-7.969-.161-.26-7.488-.286-7.387-.026m160.268,1.377c-1.177,1.893-7.548,11.745-11,17.014-1.381,2.107-2.511,3.877-2.511,3.933a29.684,29.684,0,0,0,3.474.043l3.474-.06,5.019-8.394c2.761-4.616,5.128-8.576,5.262-8.8.2-.34.285-.358.516-.108.3.33,5.883,9.317,8.836,14.233l1.907,3.175h3.429c2.981,0,3.413-.043,3.3-.327-.069-.18-3.388-5.265-7.374-11.3l-7.249-10.973h-6.113l-.971,1.561m-23.09,34.213a4.381,4.381,0,0,0-1.257.79,4.054,4.054,0,0,0,.5,6.43,5.016,5.016,0,0,0,4.415,0,4.247,4.247,0,0,0,.9-6.158,4.537,4.537,0,0,0-4.559-1.058m-204.8,3.805v3.892h.538c.514,0,.538-.058.538-1.292v-1.292l1.561,0c2.8-.008,4.031-1,3.757-3.045a2.6,2.6,0,0,0-.678-1.447c-.53-.53-.694-.563-3.134-.631l-2.578-.072v3.89m15.761-.035.059,3.821h.538c.514,0,.541-.063.6-1.453l.063-1.453h.951c.915,0,1,.058,2.2,1.5.983,1.185,1.366,1.5,1.837,1.507.321,0,.592-.072.592-.167a8.349,8.349,0,0,0-1.125-1.436c-.706-.792-1.024-1.3-.854-1.355a4.391,4.391,0,0,0,.9-.621,2.25,2.25,0,0,0,.572-2.716c-.5-1.185-1.222-1.447-4.01-1.447H163.2l.059,3.821m16.524.054v3.875h1.071v-7.753h-1.076v3.874m10.656-3.438c.08.241.823,1.988,1.66,3.885,1.442,3.27,1.55,3.446,2.082,3.385.5-.058.718-.417,2-3.3,2.056-4.611,2-4.412,1.275-4.412-.563,0-.669.166-1.849,2.959-.689,1.628-1.315,3.032-1.39,3.12a13.726,13.726,0,0,1-1.419-2.959c-1.222-2.974-1.31-3.12-1.888-3.12-.511,0-.585.068-.468.436m18.416.91c-.337.74-1.107,2.4-1.713,3.682a26.093,26.093,0,0,0-1.1,2.529c0,.106.246.193.546.193.442,0,.624-.185.964-.964l.416-.964h4.26l.37.964c.321.853.448.964,1.021.964.436,0,.615-.089.542-.269-.059-.148-.86-1.892-1.777-3.875-1.6-3.447-1.7-3.605-2.291-3.605-.555,0-.69.146-1.235,1.345m13.368-.861c.061.428.211.492,1.3.549l1.232.064.059,3.272.059,3.272h1.076l.059-3.272.059-3.272,1.232-.064c1.091-.057,1.24-.12,1.3-.549.068-.482.066-.482-3.19-.482s-3.258,0-3.19.482m15.722,3.336.059,3.821,2.959.059,2.959.059v-1.088h-2.355a9.987,9.987,0,0,1-2.439-.161,4.567,4.567,0,0,1,.009-1.184l.092-1.022h2.131c2.129,0,2.131,0,2.131-.538v-.538h-4.3V339.2l1.57-.147a14.962,14.962,0,0,1,2.206-.072c.523.062.648-.011.7-.409.068-.482.054-.482-2.857-.482h-2.925l.059,3.821m26.887-.108c-.969,2.042-1.76,3.785-1.758,3.874s.248.161.546.161c.428,0,.643-.2,1.011-.964l.471-.964h4.234l.415.964c.359.838.5.964,1.056.964h.643l-1.2-2.529c-.658-1.391-1.472-3.134-1.808-3.874-.544-1.2-.68-1.345-1.23-1.345-.59,0-.7.174-2.381,3.713m15.6-.551c.773,1.753,1.542,3.509,1.708,3.9.248.585.4.7.862.643.5-.062.735-.46,2.245-3.835l1.688-3.767-.544-.071a.986.986,0,0,0-.7.108c-.084.1-.723,1.5-1.421,3.126s-1.286,2.929-1.306,2.905-.621-1.4-1.333-3.054c-1.23-2.867-1.325-3.016-1.947-3.08l-.655-.067,1.406,3.187m16.01.712v3.875h1.076v-7.746h-1.076v3.874M309.6,339.85l-1.726,3.676a16.928,16.928,0,0,0-.884,2.1c0,.117.223.211.5.211.375,0,.611-.241.969-.977l.474-.977,2.1.062,2.1.062.413.915c.345.764.514.915,1.022.915a1.339,1.339,0,0,0,.609-.073c0-.04-.767-1.759-1.7-3.821-1.631-3.585-1.733-3.75-2.363-3.814s-.694.006-1.5,1.722m13.53-1.36c0,.332.225.428,1.292.549l1.292.146v6.651h1.065l.059-3.39.059-3.39h1.292c1.176,0,1.3-.043,1.361-.482.068-.482.066-.482-3.175-.482-3.026,0-3.244.027-3.244.4m15.965,3.42.059,3.821h1.076l.059-3.821.059-3.821h-1.312l.059,3.821m28.147.054v3.875h1.064l.059-2.954.059-2.955,1.807,2.363c2.277,2.974,2.806,3.547,3.3,3.547.362,0,.391-.276.391-3.875v-3.874h-1.067l-.06,2.793-.06,2.793-2.224-2.793c-1.75-2.2-2.331-2.793-2.745-2.793h-.521v3.874M152.473,339.59a1.456,1.456,0,0,1-.172,2.147c-.457.36-.874.446-2.152.446h-1.585V338.9l1.758.1c1.5.087,1.816.174,2.152.59m14.912-.421a1.341,1.341,0,0,1,1.312,1.12c.109.451.017.7-.409,1.13-.491.491-.723.549-2.17.549h-1.624v-1.382c0-1.569.1-1.668,1.483-1.519.519.056,1.155.1,1.411.1m187.826.118a3.125,3.125,0,0,1-.039,5.316,2.9,2.9,0,0,1-2.675.068,3.175,3.175,0,0,1-1.038-4.645,3.578,3.578,0,0,1,1.022-.864,3.93,3.93,0,0,1,2.729.125m-144.467,1.488c1.093,2.411,1.13,2.267-.576,2.267a6.214,6.214,0,0,1-1.607-.121,16.862,16.862,0,0,1,1.484-3.536,10.1,10.1,0,0,1,.7,1.392m101.078.249a14.74,14.74,0,0,1,.748,1.829,3.721,3.721,0,0,1-1.632.188c-.9,0-1.6-.08-1.561-.177.3-.734,1.591-3.482,1.638-3.482a15.948,15.948,0,0,1,.8,1.641m-43.838.044a10.205,10.205,0,0,1,.677,1.722c0,.168-.5.252-1.507.252a3.207,3.207,0,0,1-1.507-.187,15.216,15.216,0,0,1,1.507-3.257,5.652,5.652,0,0,1,.829,1.47" transform="translate(-81 -100.02)" fill-rule="evenodd" fill="url(#linear-gradient)"/>
      </g>
      <g transform="matrix(1, 0, 0, 1, 1184, 1782)" filter="url(#vector-2)">
        <path id="vector-4" data-name="vector" d="M155.021,207.19c0,.1.411.4.915.685,2.057,1.146,3.092,2.561,6.066,8.3,1.527,2.954,3.478,6.677,4.326,8.278s3.558,6.831,6.021,11.623,4.783,9.3,5.155,10.009c.775,1.48,1.144,1.712,3.323,2.085,1.336.229,2.176.2,5.947-.169,2.417-.241,4.444-.482,4.506-.547s-.3-.542-.8-1.067c-1.876-1.964-10.969-12.079-14.7-16.349-6.868-7.865-7.865-9.027-7.741-9.027.227,0,6,3.933,10.226,6.964,5.363,3.848,12.257,8.983,16.789,12.5,5.129,3.987,7.407,4.983,11.923,5.224,2.463.13,7.876-.289,7.876-.608,0-.1-.375-.375-.833-.609a13.047,13.047,0,0,1-2.1-1.565c-2.2-1.979-24.235-22.043-30.3-27.59-8.4-7.678-8.117-7.466-10.643-8-1.066-.226-3.28-.3-8.694-.307-4,0-7.264.076-7.264.172m204.367,36.569c-23.6.379-75.468,2.376-94.059,3.621-24.318,1.628-46.836,3.681-69.52,6.336-17.882,2.09-22.689,2.667-30.782,3.68-10.35,1.3-10.224,1.277-10.224,1.556,0,.3,19.961.043,30.241-.387,19.153-.8,41.605-2.133,56.284-3.334,1.48-.121,9.276-.755,17.326-1.407s19.771-1.622,26.04-2.154c13.868-1.174,23.818-2.016,35.622-3.012,4.913-.415,11.644-.991,14.959-1.281s12.225-1.013,19.8-1.607c20.077-1.577,22.136-1.756,22.492-1.961.293-.168-9.132-.193-18.188-.047M266.47,262.317c-.461.374-.515.608-.581,2.549-.068,2-.039,2.176.443,2.737a1.991,1.991,0,0,0,1.594.7c.923.088,1.167.027,1.7-.432.557-.482.632-.7.71-2.067.173-3.054-.305-3.9-2.2-3.9a2.513,2.513,0,0,0-1.668.411m10.829.087c-.416.444-.467.732-.461,2.637.007,2.221.134,2.61,1,3.072,1.094.583,2.921.053,3.306-.958a9.791,9.791,0,0,0-.02-4.009c-.276-.994-.712-1.24-2.2-1.24-.935,0-1.251.1-1.628.5m10.955.069c-.382.482-.446.869-.446,2.652s.06,2.147.436,2.551a2.629,2.629,0,0,0,3.6-.069c.42-.482.482-.8.482-2.385,0-1.9-.315-2.926-.978-3.18a6.43,6.43,0,0,0-1.5-.133c-.987,0-1.214.08-1.6.567m11-.069c-.416.444-.468.736-.468,2.672,0,2.162,0,2.176.662,2.733a2.492,2.492,0,0,0,3.143.04c.551-.473.608-.666.681-2.262.137-3.012-.28-3.678-2.3-3.678-1.032,0-1.337.088-1.722.5m10.955.069c-.379.482-.446.87-.446,2.572,0,1.808.051,2.063.519,2.607s.669.6,1.741.6,1.286-.074,1.741-.6c.47-.547.519-.8.519-2.647,0-1.881-.042-2.084-.528-2.572-.443-.443-.736-.528-1.814-.528-1.132,0-1.339.068-1.732.567m10.977,0c-.382.482-.446.869-.446,2.652s.06,2.147.436,2.551a2.725,2.725,0,0,0,3.536.044c.391-.391.444-.708.444-2.717,0-2.129-.032-2.3-.508-2.684a2.611,2.611,0,0,0-1.76-.411c-1.1,0-1.308.071-1.7.567m10.97-.1c-.383.41-.439.755-.439,2.667,0,2.533.241,3.035,1.549,3.245a2.552,2.552,0,0,0,2.331-.576c.369-.368.425-.723.425-2.647,0-2.045-.04-2.26-.5-2.691a3.064,3.064,0,0,0-3.367,0m10.969-.041c-.378.378-.431.718-.431,2.765,0,2.733.184,3.044,1.891,3.208a1.777,1.777,0,0,0,1.724-.482c.69-.58.69-.581.69-2.684,0-1.8-.064-2.185-.446-2.672s-.6-.567-1.722-.567c-.989,0-1.373.1-1.706.431m11.011.068c-.413.44-.468.739-.468,2.565,0,2.422.068,2.661.877,3.079,1.121.579,2.96.21,3.3-.663a14.566,14.566,0,0,0,.133-2.446c0-1.914-.043-2.138-.5-2.565a2.94,2.94,0,0,0-3.339.03m-128.965-.08-2.673.133,1.974.043a148.132,148.132,0,0,1,19.227,1.9c6.423,1.181,9.594,2.991,11.895,6.79a14.348,14.348,0,0,1,1.487,10.485,12.693,12.693,0,0,1-7.852,9.2l-1.329.493,1.527.011a14.717,14.717,0,0,0,5.915-1.4,12.665,12.665,0,0,0,5.621-6.731c.432-1.249.5-1.853.494-4.561,0-2.86-.054-3.265-.606-4.843-2.331-6.671-7.608-10.026-17.578-11.189a162.686,162.686,0,0,0-18.083-.342m-57.791.218c-.829.08-1.286.17-1.018.19,12.947,1.006,27.078,3.687,36.532,6.931,11.211,3.847,18.111,7.7,28.089,15.7,4.934,3.954,7.32,5.19,11.234,5.822,1.711.276,3.023.219,2.218-.1a12.618,12.618,0,0,1-6.607-5.826c-1.082-2.094-1.307-3.046-1.447-6.129l-.123-2.685-1.937-1.14c-9.414-5.538-20.787-9.077-36.806-11.454-7.928-1.176-10.109-1.331-19.691-1.4-4.913-.035-9.611,0-10.439.088m78.454,6.46c-2.522.5-4.661,2.745-5.652,5.929a11.044,11.044,0,0,0-.461,3.767,10.237,10.237,0,0,0,1.705,6.172c2.17,3.31,6.831,3.938,9.345,1.267.582-.619.482-.69-.375-.259a6.806,6.806,0,0,1-1.214.444l-.633.152.923-1a11.374,11.374,0,0,0,2.266-10,9.065,9.065,0,0,0-2.32-4.255l-.869-.943.633.14c.348.08.9.223,1.225.326.833.262.735-.065-.215-.719a5.767,5.767,0,0,0-4.358-1.02m27.794,33.388a7.3,7.3,0,0,0-5.325,4.3c-.362,1.04-.407,1.837-.407,7.09v5.919l.637,1.259a7.251,7.251,0,0,0,3.743,3.415c1.206.488,1.292.492,13.108.554l11.895.063v-4.322l-2.314-.043c-1.273-.023-6.285-.047-11.139-.054-8.025-.01-8.888-.045-9.522-.392-1.03-.563-1.392-1.271-1.513-2.962l-.108-1.5h23.307v-4.306h-23.26v-1.238A3.338,3.338,0,0,1,274.262,307c.723-.423,1.142-.44,11.895-.5l11.139-.063V302.15l-11.354.023c-6.245.013-11.777.107-12.3.208m43.111.055a11.769,11.769,0,0,0-.047,2.1l.063,1.812,11.838.108c10.868.1,11.895.139,12.547.5a3.432,3.432,0,0,1,.118,5.681c-.548.359-1.494.4-12.548.5l-11.955.108v11.623l2.422.061,2.422.061v-7.547h11.252l2.491,2.1c1.371,1.154,3.347,2.849,4.393,3.767l1.9,1.668H348.4l-1.013-1.022c-.558-.563-2.411-2.233-4.12-3.713s-3.114-2.749-3.122-2.822a2.8,2.8,0,0,1,1.169-.253,7.365,7.365,0,0,0,5.746-3.989c.425-.863.5-1.34.494-3.27a6.652,6.652,0,0,0-.5-3.336,7.324,7.324,0,0,0-5.342-4.092c-2.09-.444-24.785-.473-24.954-.034M118,310.8c0,5.091.088,8.77.221,9.243a7.293,7.293,0,0,0,2.627,3.549c1.929,1.291,2.745,1.366,15.226,1.366h11.212l-.061-2.206-.061-2.206H136.083c-10.158,0-11.143-.033-11.777-.379-1.24-.675-1.234-.643-1.352-9.521l-.108-8.179-2.422-.061L118,302.35V310.8m45.891.115c.061,8.272.08,8.589.532,9.564a8.255,8.255,0,0,0,2.959,3.3c1.84,1.078,2.912,1.174,13.062,1.178,5.291,0,9.893-.09,10.547-.21a8.284,8.284,0,0,0,4.76-2.692c1.415-1.859,1.458-2.2,1.458-11.447v-8.251H192.5l-.066,7.91c-.062,7.457-.091,7.952-.5,8.642a3.581,3.581,0,0,1-1.226,1.145c-.744.387-1.393.415-10.116.452-8.971.037-9.348.022-10.052-.391a4.778,4.778,0,0,1-1.184-1.038c-.439-.588-.455-.859-.514-8.663l-.061-8.056h-4.956l.064,8.557m51.218-8.372c.08.21,2.639,2.283,9.162,7.431,2.516,1.984,4.574,3.634,4.574,3.667s-3.1,2.511-6.888,5.507-6.888,5.53-6.888,5.626a16.482,16.482,0,0,0,3.433.182h3.433l5.295-4.216a51.031,51.031,0,0,1,5.554-4.109c.142.059,2.583,1.952,5.424,4.208l5.165,4.1,3.5.008a18.981,18.981,0,0,0,3.488-.154c0-.089-1.627-1.438-3.605-3-8.583-6.773-10.16-8.046-10.154-8.2a36.867,36.867,0,0,1,3.157-2.635c1.733-1.361,4.848-3.831,6.922-5.488l3.773-3.013-3.573-.059-3.573-.059-5.209,4.1c-2.865,2.25-5.3,4.1-5.416,4.1-.226,0-9.976-7.626-10.187-7.969-.161-.26-7.488-.286-7.387-.026m160.268,1.377c-1.177,1.893-7.548,11.745-11,17.014-1.381,2.107-2.511,3.877-2.511,3.933a29.684,29.684,0,0,0,3.474.043l3.474-.06,5.019-8.394c2.761-4.616,5.128-8.576,5.262-8.8.2-.34.285-.358.516-.108.3.33,5.883,9.317,8.836,14.233l1.907,3.175h3.429c2.981,0,3.413-.043,3.3-.327-.069-.18-3.388-5.265-7.374-11.3l-7.249-10.973h-6.113l-.971,1.561m-23.09,34.213a4.381,4.381,0,0,0-1.257.79,4.054,4.054,0,0,0,.5,6.43,5.016,5.016,0,0,0,4.415,0,4.247,4.247,0,0,0,.9-6.158,4.537,4.537,0,0,0-4.559-1.058m-204.8,3.805v3.892h.538c.514,0,.538-.058.538-1.292v-1.292l1.561,0c2.8-.008,4.031-1,3.757-3.045a2.6,2.6,0,0,0-.678-1.447c-.53-.53-.694-.563-3.134-.631l-2.578-.072v3.89m15.761-.035.059,3.821h.538c.514,0,.541-.063.6-1.453l.063-1.453h.951c.915,0,1,.058,2.2,1.5.983,1.185,1.366,1.5,1.837,1.507.321,0,.592-.072.592-.167a8.349,8.349,0,0,0-1.125-1.436c-.706-.792-1.024-1.3-.854-1.355a4.391,4.391,0,0,0,.9-.621,2.25,2.25,0,0,0,.572-2.716c-.5-1.185-1.222-1.447-4.01-1.447H163.2l.059,3.821m16.524.054v3.875h1.071v-7.753h-1.076v3.874m10.656-3.438c.08.241.823,1.988,1.66,3.885,1.442,3.27,1.55,3.446,2.082,3.385.5-.058.718-.417,2-3.3,2.056-4.611,2-4.412,1.275-4.412-.563,0-.669.166-1.849,2.959-.689,1.628-1.315,3.032-1.39,3.12a13.726,13.726,0,0,1-1.419-2.959c-1.222-2.974-1.31-3.12-1.888-3.12-.511,0-.585.068-.468.436m18.416.91c-.337.74-1.107,2.4-1.713,3.682a26.093,26.093,0,0,0-1.1,2.529c0,.106.246.193.546.193.442,0,.624-.185.964-.964l.416-.964h4.26l.37.964c.321.853.448.964,1.021.964.436,0,.615-.089.542-.269-.059-.148-.86-1.892-1.777-3.875-1.6-3.447-1.7-3.605-2.291-3.605-.555,0-.69.146-1.235,1.345m13.368-.861c.061.428.211.492,1.3.549l1.232.064.059,3.272.059,3.272h1.076l.059-3.272.059-3.272,1.232-.064c1.091-.057,1.24-.12,1.3-.549.068-.482.066-.482-3.19-.482s-3.258,0-3.19.482m15.722,3.336.059,3.821,2.959.059,2.959.059v-1.088h-2.355a9.987,9.987,0,0,1-2.439-.161,4.567,4.567,0,0,1,.009-1.184l.092-1.022h2.131c2.129,0,2.131,0,2.131-.538v-.538h-4.3V339.2l1.57-.147a14.962,14.962,0,0,1,2.206-.072c.523.062.648-.011.7-.409.068-.482.054-.482-2.857-.482h-2.925l.059,3.821m26.887-.108c-.969,2.042-1.76,3.785-1.758,3.874s.248.161.546.161c.428,0,.643-.2,1.011-.964l.471-.964h4.234l.415.964c.359.838.5.964,1.056.964h.643l-1.2-2.529c-.658-1.391-1.472-3.134-1.808-3.874-.544-1.2-.68-1.345-1.23-1.345-.59,0-.7.174-2.381,3.713m15.6-.551c.773,1.753,1.542,3.509,1.708,3.9.248.585.4.7.862.643.5-.062.735-.46,2.245-3.835l1.688-3.767-.544-.071a.986.986,0,0,0-.7.108c-.084.1-.723,1.5-1.421,3.126s-1.286,2.929-1.306,2.905-.621-1.4-1.333-3.054c-1.23-2.867-1.325-3.016-1.947-3.08l-.655-.067,1.406,3.187m16.01.712v3.875h1.076v-7.746h-1.076v3.874M309.6,339.85l-1.726,3.676a16.928,16.928,0,0,0-.884,2.1c0,.117.223.211.5.211.375,0,.611-.241.969-.977l.474-.977,2.1.062,2.1.062.413.915c.345.764.514.915,1.022.915a1.339,1.339,0,0,0,.609-.073c0-.04-.767-1.759-1.7-3.821-1.631-3.585-1.733-3.75-2.363-3.814s-.694.006-1.5,1.722m13.53-1.36c0,.332.225.428,1.292.549l1.292.146v6.651h1.065l.059-3.39.059-3.39h1.292c1.176,0,1.3-.043,1.361-.482.068-.482.066-.482-3.175-.482-3.026,0-3.244.027-3.244.4m15.965,3.42.059,3.821h1.076l.059-3.821.059-3.821h-1.312l.059,3.821m28.147.054v3.875h1.064l.059-2.954.059-2.955,1.807,2.363c2.277,2.974,2.806,3.547,3.3,3.547.362,0,.391-.276.391-3.875v-3.874h-1.067l-.06,2.793-.06,2.793-2.224-2.793c-1.75-2.2-2.331-2.793-2.745-2.793h-.521v3.874M152.473,339.59a1.456,1.456,0,0,1-.172,2.147c-.457.36-.874.446-2.152.446h-1.585V338.9l1.758.1c1.5.087,1.816.174,2.152.59m14.912-.421a1.341,1.341,0,0,1,1.312,1.12c.109.451.017.7-.409,1.13-.491.491-.723.549-2.17.549h-1.624v-1.382c0-1.569.1-1.668,1.483-1.519.519.056,1.155.1,1.411.1m187.826.118a3.125,3.125,0,0,1-.039,5.316,2.9,2.9,0,0,1-2.675.068,3.175,3.175,0,0,1-1.038-4.645,3.578,3.578,0,0,1,1.022-.864,3.93,3.93,0,0,1,2.729.125m-144.467,1.488c1.093,2.411,1.13,2.267-.576,2.267a6.214,6.214,0,0,1-1.607-.121,16.862,16.862,0,0,1,1.484-3.536,10.1,10.1,0,0,1,.7,1.392m101.078.249a14.74,14.74,0,0,1,.748,1.829,3.721,3.721,0,0,1-1.632.188c-.9,0-1.6-.08-1.561-.177.3-.734,1.591-3.482,1.638-3.482a15.948,15.948,0,0,1,.8,1.641m-43.838.044a10.205,10.205,0,0,1,.677,1.722c0,.168-.5.252-1.507.252a3.207,3.207,0,0,1-1.507-.187,15.216,15.216,0,0,1,1.507-3.257,5.652,5.652,0,0,1,.829,1.47" transform="translate(-81 -100.02)" fill="#fff" fill-rule="evenodd"/>
      </g>
    </g>
  </g>
</svg>
